<?xml version="1.0" standalone="no"?>
<!DOCTYPE svg PUBLIC "-//W3C//DTD SVG 20010904//EN"
 "http://www.w3.org/TR/2001/REC-SVG-20010904/DTD/svg10.dtd">
<svg version="1.0" xmlns="http://www.w3.org/2000/svg"
 width="708.000000pt" height="600.000000pt" viewBox="0 0 708.000000 600.000000"
 preserveAspectRatio="xMidYMid meet">
<metadata>
Created by potrace 1.16, written by Peter Selinger 2001-2019
</metadata>
<g transform="translate(0.000000,600.000000) scale(0.100000,-0.100000)"
fill="#000000" stroke="none">
<path d="M2590 5660 c0 -18 11 -42 30 -63 50 -57 43 -200 -19 -442 -13 -50
-14 -72 -2 -59 8 9 14 34 46 189 8 39 18 115 22 170 l8 100 21 -20 c22 -22 50
-41 74 -52 8 -4 21 -13 28 -20 7 -7 20 -13 28 -13 8 0 14 -4 14 -10 0 -5 4
-10 9 -10 5 0 39 -13 74 -30 36 -16 72 -30 81 -30 8 0 17 -4 20 -8 3 -4 27
-14 54 -21 42 -12 49 -17 45 -35 -4 -21 -4 -21 11 -2 20 25 20 36 1 36 -22 0
-132 38 -191 66 -28 13 -56 24 -62 24 -7 0 -12 5 -12 10 0 6 -5 10 -11 10 -17
0 -168 103 -174 119 -7 18 24 40 58 41 15 0 27 5 27 10 0 6 -9 10 -21 10 -24
0 -92 -44 -82 -53 3 -4 3 -7 -2 -7 -23 0 -70 82 -61 107 3 7 1 13 -4 13 -6 0
-10 -13 -10 -30z"/>
<path d="M2683 5669 c-25 -16 -33 -28 -32 -47 2 -25 2 -26 6 -4 3 13 18 31 34
40 16 10 29 20 29 25 0 10 -1 9 -37 -14z"/>
<path d="M4333 5679 c-12 -4 -24 -13 -28 -19 -7 -12 21 -50 38 -50 6 0 3 8 -6
18 -35 38 -23 45 72 40 94 -4 96 -5 143 -68 46 -61 55 -183 10 -138 -13 13
-132 12 -146 -2 -11 -11 12 -60 28 -60 6 0 5 5 -2 12 -47 47 47 67 133 28 77
-35 93 -91 50 -176 -23 -47 -83 -111 -92 -98 -22 32 -133 60 -133 35 0 -21 47
-61 75 -65 17 -2 23 -1 15 1 -9 2 -29 15 -45 28 -26 20 -28 24 -13 30 17 7 97
-25 88 -35 -3 -3 5 -16 18 -30 12 -13 22 -32 22 -41 0 -10 5 -21 10 -24 6 -3
10 -35 10 -71 0 -36 -4 -64 -10 -64 -5 0 -10 -7 -10 -15 0 -8 -4 -15 -9 -15
-5 0 -13 -9 -16 -21 -4 -11 -9 -18 -12 -16 -2 3 -12 -1 -21 -9 -10 -7 -25 -20
-36 -27 -17 -12 -17 -14 -2 -14 10 0 41 22 69 49 l52 49 0 87 c0 69 -4 93 -19
115 l-19 28 30 32 c47 51 83 129 83 178 -1 44 -18 79 -39 79 -6 0 -11 18 -11
44 0 25 -4 47 -9 50 -4 3 -11 20 -15 37 -19 99 -146 158 -253 118z"/>
<path d="M1720 5414 c0 -4 10 -15 23 -26 12 -11 46 -40 76 -66 29 -26 62 -54
73 -62 11 -8 45 -37 75 -65 68 -61 93 -79 93 -67 0 6 -21 27 -46 48 -26 22
-60 50 -75 64 -16 14 -34 30 -41 35 -15 11 -86 72 -136 116 -33 29 -42 34 -42
23z"/>
<path d="M1471 5327 c27 -20 32 -53 13 -92 -9 -19 -21 -35 -26 -35 -5 0 -6 -5
-3 -10 7 -11 22 2 43 38 25 45 8 113 -30 112 -9 -1 -8 -4 3 -13z"/>
<path d="M3106 5272 c-11 -18 -18 -121 -10 -149 6 -22 9 -9 14 62 7 92 6 103
-4 87z"/>
<path d="M1340 5260 c0 -5 13 -10 28 -10 34 0 52 -16 52 -47 0 -13 5 -23 10
-23 19 0 10 47 -13 68 -24 22 -77 30 -77 12z"/>
<path d="M2855 5244 c39 -13 77 -22 85 -20 17 3 22 1 -65 30 -27 9 -59 16 -70
15 -11 0 12 -11 50 -25z"/>
<path d="M1592 5216 c-7 -15 -22 -28 -39 -31 -15 -4 -39 -8 -52 -11 -39 -8
-19 -13 31 -7 47 5 85 38 76 65 -2 6 -9 -1 -16 -16z"/>
<path d="M5413 5173 c-28 -38 -60 -78 -70 -91 -10 -12 -31 -39 -46 -60 -16
-20 -50 -66 -77 -102 -27 -35 -47 -66 -45 -69 3 -2 6 -2 8 0 2 2 57 74 122
159 65 85 132 172 148 193 16 20 25 37 20 37 -4 0 -31 -30 -60 -67z"/>
<path d="M2960 5214 c0 -3 14 -10 30 -15 17 -6 30 -15 30 -20 0 -5 5 -9 10 -9
19 0 10 16 -19 33 -29 17 -51 22 -51 11z"/>
<path d="M1379 5140 c-37 -33 -146 -90 -172 -90 -9 0 -26 -4 -39 -9 -13 -5
-36 -12 -52 -16 -15 -3 -26 -9 -23 -12 21 -20 238 64 297 116 19 16 46 32 60
34 22 4 21 4 -6 6 -22 1 -41 -8 -65 -29z"/>
<path d="M1470 5145 c0 -9 90 -145 96 -145 4 0 0 10 -8 23 -9 12 -30 46 -47
75 -30 47 -41 60 -41 47z"/>
<path d="M3045 5083 c-63 -16 -155 -126 -155 -186 0 -11 -19 -16 -72 -19 -123
-9 -257 -107 -290 -213 l-15 -50 -51 -5 c-68 -7 -78 -20 -15 -20 27 0 53 3 57
7 7 7 114 6 281 -2 58 -3 79 -1 60 4 -16 5 -94 9 -172 10 -158 1 -156 0 -129
66 40 95 167 183 279 192 67 6 87 16 87 43 0 65 84 149 155 158 25 2 45 9 45
13 0 9 -31 10 -65 2z"/>
<path d="M3926 5048 c-10 -24 -25 -57 -33 -75 -8 -18 -13 -38 -10 -45 3 -9 7
-6 12 7 4 11 9 27 13 35 3 8 6 17 7 20 1 5 33 76 42 93 2 4 0 7 -4 7 -5 0 -17
-19 -27 -42z"/>
<path d="M2579 5075 c-4 -5 -10 -23 -14 -40 -5 -16 -9 -32 -10 -35 -5 -15 -19
-49 -32 -78 -8 -18 -12 -38 -10 -45 3 -7 10 2 16 18 6 17 15 37 20 45 5 9 12
31 16 50 4 19 12 40 17 47 5 7 8 20 6 30 -2 10 -6 14 -9 8z"/>
<path d="M1030 4999 c0 -6 7 -8 16 -5 8 3 13 2 10 -2 -3 -5 9 -17 27 -27 96
-56 207 -195 207 -259 0 -31 3 -36 23 -36 12 0 17 3 11 8 -6 4 -14 22 -18 41
-13 67 -109 183 -210 254 -15 10 -24 22 -21 28 4 5 -5 9 -19 9 -14 0 -26 -5
-26 -11z"/>
<path d="M2704 5002 c3 -5 23 -12 45 -16 22 -3 48 -9 58 -12 16 -6 15 -5 -2 9
-24 17 -111 34 -101 19z"/>
<path d="M1572 4982 c41 -95 341 -442 383 -442 3 0 23 -11 44 -24 21 -14 57
-29 80 -36 23 -6 41 -17 41 -25 0 -16 -69 -75 -87 -75 -7 0 -13 -5 -13 -11 0
-6 -17 -31 -38 -57 -20 -26 -45 -60 -54 -77 -15 -27 -24 -31 -80 -38 -35 -4
-67 -13 -73 -18 -7 -7 1 -9 25 -4 19 3 57 7 83 8 34 2 47 6 47 17 0 22 62 111
105 151 21 19 60 55 88 81 28 26 59 50 69 54 10 3 18 10 18 15 0 11 -15 4 -41
-18 -14 -12 -25 -11 -80 7 -35 12 -66 25 -69 28 -3 4 -23 16 -45 27 -65 33
-254 230 -329 344 -57 85 -88 125 -74 93z"/>
<path d="M3574 4968 c3 -7 9 -21 12 -30 4 -10 10 -18 15 -18 5 0 9 -8 9 -17 0
-10 6 -29 13 -43 7 -14 21 -47 31 -75 10 -27 21 -59 26 -70 5 -11 17 -49 27
-84 17 -61 50 -111 73 -111 17 0 11 15 -11 25 -23 10 -35 37 -65 140 -9 33
-21 64 -26 70 -4 5 -8 15 -8 23 0 8 -7 29 -15 48 -8 19 -22 49 -30 68 -8 19
-15 39 -15 45 0 6 -4 11 -10 11 -5 0 -10 7 -10 15 0 8 -5 15 -11 15 -6 0 -8
-6 -5 -12z"/>
<path d="M3866 4902 c-3 -5 -8 -29 -11 -53 -8 -53 9 -34 20 24 7 35 3 48 -9
29z"/>
<path d="M1490 4827 c-46 -14 -150 -77 -128 -77 9 0 20 4 23 10 3 5 20 16 38
23 38 17 106 44 127 51 10 3 8 4 -5 4 -11 0 -36 -5 -55 -11z"/>
<path d="M2460 4775 c0 -8 -4 -15 -9 -15 -5 0 -12 -13 -16 -30 -4 -16 -11 -30
-16 -30 -5 0 -9 -5 -9 -10 0 -36 -60 -102 -118 -130 -33 -17 -64 -35 -68 -41
-4 -7 -3 -10 2 -7 88 40 162 83 158 90 -3 5 2 21 12 36 22 34 84 143 84 148 0
2 -4 4 -10 4 -5 0 -10 -7 -10 -15z"/>
<path d="M3812 4690 c-14 -47 -16 -78 -3 -64 8 9 26 104 19 104 -2 0 -9 -18
-16 -40z"/>
<path d="M1719 4673 c-1 -4 -1 -11 0 -15 0 -5 -3 -8 -9 -8 -5 0 -10 -6 -10
-14 0 -8 -3 -16 -7 -18 -5 -1 -20 -28 -35 -58 -22 -43 -23 -50 -7 -30 37 45
88 140 78 145 -5 4 -10 3 -10 -2z"/>
<path d="M1340 4666 c0 -3 17 -10 38 -17 94 -30 222 -142 222 -194 0 -12 18
-15 103 -15 56 0 120 -3 141 -7 28 -4 37 -3 32 5 -5 8 -48 12 -130 12 l-124 0
-13 33 c-19 47 -98 118 -172 155 -56 28 -97 40 -97 28z"/>
<path d="M3611 4604 c-1 -40 22 -51 40 -18 10 19 10 27 1 36 -9 9 -12 7 -12
-9 0 -33 -18 -37 -23 -6 -4 27 -4 27 -6 -3z"/>
<path d="M3913 4623 c-21 -8 -16 -60 6 -66 24 -6 31 0 31 28 0 26 -19 44 -37
38z"/>
<path d="M2901 4586 c3 -3 43 -13 90 -22 46 -9 97 -18 113 -21 20 -4 27 -2 22
6 -4 6 -21 11 -37 11 -17 0 -38 4 -47 9 -20 10 -150 26 -141 17z"/>
<path d="M4358 4549 c23 -13 42 -28 42 -35 0 -6 7 -17 15 -24 12 -10 15 -10
15 2 0 26 -44 66 -80 73 l-35 6 43 -22z"/>
<path d="M4234 4508 c-27 -29 -56 -64 -65 -77 l-16 -25 -306 0 c-280 -1 -301
-2 -244 -14 49 -11 111 -11 307 -3 l245 10 24 28 c54 64 87 99 111 115 18 12
20 17 9 17 -9 1 -38 -23 -65 -51z"/>
<path d="M3144 4532 c3 -5 26 -13 51 -16 24 -4 47 -11 50 -16 3 -4 23 -11 45
-15 22 -4 42 -11 46 -16 3 -5 13 -9 22 -9 27 0 0 16 -58 35 -30 10 -59 21 -65
25 -17 13 -98 23 -91 12z"/>
<path d="M4283 4470 c-37 -22 -43 -52 -17 -88 36 -51 121 -9 111 56 -7 41 -6
39 -37 46 -16 4 -36 -1 -57 -14z m73 -15 c25 -38 6 -75 -39 -75 -59 0 -74 34
-32 75 31 32 50 31 71 0z"/>
<path d="M4434 4450 c18 -66 26 -146 26 -262 l0 -128 -24 0 c-24 0 -101 -29
-78 -30 6 0 11 -3 10 -7 -3 -15 14 -63 23 -63 5 0 9 -11 9 -25 0 -38 17 -30
24 13 9 55 8 71 -3 53 -5 -8 -7 -20 -4 -28 8 -20 -15 -15 -27 6 -26 50 -13 62
79 73 29 3 -1 385 -33 415 -5 4 -6 -3 -2 -17z"/>
<path d="M3420 4440 c0 -5 11 -10 24 -10 14 0 28 -4 31 -10 3 -5 18 -10 33
-10 22 1 17 5 -23 20 -57 23 -65 24 -65 10z"/>
<path d="M1905 4420 c3 -5 16 -10 28 -10 12 0 31 -7 41 -15 22 -16 36 -19 36
-7 0 8 -79 42 -98 42 -7 0 -10 -4 -7 -10z"/>
<path d="M865 4370 c51 -22 226 -71 237 -67 7 2 -7 10 -32 16 -25 7 -79 24
-120 37 -72 23 -128 33 -85 14z"/>
<path d="M5415 4321 c-22 -4 -56 -14 -75 -23 -19 -9 -66 -26 -105 -38 -102
-32 -101 -32 -89 -37 7 -2 38 6 70 17 33 12 75 26 94 32 19 5 41 15 49 21 8 7
62 13 125 15 61 2 115 8 121 13 10 10 -128 10 -190 0z"/>
<path d="M5613 4301 c-10 -10 -56 -44 -103 -76 -47 -32 -104 -72 -126 -90
l-42 -31 67 -2 c37 -2 78 2 92 8 19 8 10 9 -43 6 -70 -5 -86 4 -46 25 12 6 27
16 32 20 30 24 76 58 121 89 28 19 52 38 53 42 2 4 10 8 18 8 8 0 14 5 14 10
0 16 -18 12 -37 -9z"/>
<path d="M6200 4203 c85 -2 158 -7 162 -11 12 -12 -28 -46 -112 -93 -64 -36
-140 -85 -306 -197 -19 -12 -34 -27 -34 -32 0 -6 -7 -10 -15 -10 -8 0 -15 -4
-15 -10 0 -17 18 -11 42 13 49 50 217 162 359 241 163 91 149 107 -86 104
l-150 -2 155 -3z"/>
<path d="M4970 4179 c-36 -11 -92 -28 -125 -39 -33 -10 -77 -22 -97 -25 -21
-4 -36 -11 -33 -15 5 -8 38 -2 120 23 28 9 93 29 145 46 52 16 86 29 75 29
-11 1 -49 -8 -85 -19z"/>
<path d="M5885 4193 c-27 -2 -54 -8 -59 -14 -12 -11 -6 -11 119 5 100 14 66
18 -60 9z"/>
<path d="M1720 4153 c-14 -9 -38 -31 -53 -49 -28 -32 -28 -32 -106 -27 -113 8
-238 -17 -263 -52 -4 -5 -9 -9 -10 -7 -21 23 -146 -94 -184 -173 -27 -56 -29
-67 -29 -185 0 -122 17 -234 38 -247 6 -4 7 3 3 18 -34 111 -34 346 0 412 24
45 121 147 140 147 8 0 14 4 14 8 0 4 15 14 33 21 17 8 48 21 67 29 43 18 257
23 268 6 4 -6 18 -15 31 -19 16 -5 21 -4 17 4 -4 6 -14 11 -22 11 -8 0 -14 5
-14 11 0 11 65 76 96 96 11 6 14 12 9 12 -6 1 -22 -7 -35 -16z"/>
<path d="M1896 4154 c-8 -22 -7 -167 2 -181 4 -6 7 36 7 93 0 112 0 112 -9 88z"/>
<path d="M5675 4154 c-38 -8 -88 -18 -110 -24 l-40 -9 45 4 c68 6 231 33 238
39 10 10 -61 5 -133 -10z"/>
<path d="M3650 4085 c0 -12 131 -157 137 -151 2 2 -19 28 -46 57 -56 59 -62
74 -28 65 12 -3 47 -8 77 -11 75 -7 24 10 -59 20 -34 4 -61 11 -61 16 0 5 -4
9 -10 9 -5 0 -10 -2 -10 -5z"/>
<path d="M5035 4065 c-70 -25 -75 -27 -75 -35 0 -4 -16 -11 -35 -14 -19 -4
-35 -11 -35 -15 0 -5 -12 -12 -27 -16 -15 -3 -30 -10 -33 -14 -3 -3 -27 -18
-55 -32 -118 -61 -138 -73 -128 -76 6 -2 26 5 44 16 19 11 77 41 129 67 52 26
97 51 100 55 3 3 20 10 38 14 17 3 32 10 32 15 0 8 8 11 90 35 30 9 37 14 20
14 -14 0 -43 -7 -65 -14z"/>
<path d="M5154 4074 c-16 -7 -124 -108 -124 -117 0 -10 126 94 134 111 3 6 4
12 3 11 -1 0 -7 -3 -13 -5z"/>
<path d="M3914 4031 c21 -4 36 -18 54 -51 35 -63 50 -77 58 -53 3 10 8 25 11
33 12 35 14 65 3 50 -5 -8 -10 -22 -10 -31 0 -40 -26 -39 -48 2 -12 23 -22 42
-22 42 0 8 247 0 252 -8 5 -6 8 -5 8 3 0 7 15 12 40 12 36 0 40 -2 40 -26 0
-31 16 -24 22 11 l5 25 -221 -1 c-121 -1 -208 -4 -192 -8z"/>
<path d="M2865 4007 c-16 -12 -35 -28 -42 -37 -15 -18 -17 -109 -3 -130 8 -10
9 4 4 47 -6 61 -6 63 25 92 40 38 80 45 190 38 85 -7 169 -31 218 -62 18 -12
28 -14 36 -6 8 8 7 11 -5 11 -8 0 -35 10 -59 23 -103 53 -306 67 -364 24z"/>
<path d="M3851 4008 c-1 -10 -5 -18 -11 -18 -5 0 -10 -10 -10 -22 1 -21 2 -21
11 -5 10 17 31 24 27 10 -1 -10 13 -46 21 -53 4 -3 12 -17 18 -32 18 -40 -6
-37 -53 7 -38 36 -54 43 -54 24 0 -5 5 -7 10 -4 6 3 10 0 10 -7 0 -19 84 -63
100 -53 10 6 12 4 7 -8 -4 -11 -1 -17 8 -17 8 0 15 -4 15 -9 0 -5 10 -11 23
-14 22 -5 72 -22 112 -38 25 -10 143 -30 213 -36 l52 -5 0 -79 c0 -46 4 -79
10 -79 6 0 10 33 10 79 0 90 5 85 -93 97 -47 5 -60 11 -67 28 -4 12 -15 28
-24 35 -9 7 -16 18 -16 23 0 17 -52 78 -66 78 -8 0 -14 -10 -14 -21 0 -17 3
-19 13 -10 14 11 37 -3 37 -24 0 -5 10 -21 23 -35 33 -35 42 -63 19 -56 -9 2
-36 8 -60 11 l-43 7 5 41 5 42 -11 -38 c-10 -31 -15 -36 -32 -31 -56 16 -96
40 -108 63 -7 14 -17 29 -23 33 -5 4 -6 8 -1 8 5 0 3 6 -3 14 -7 8 -23 36 -36
63 -13 26 -24 40 -24 31z"/>
<path d="M4116 3985 c14 -19 30 -35 35 -35 5 0 8 -3 7 -7 -2 -5 2 -8 7 -8 6 0
9 5 7 11 -1 7 2 15 8 19 5 3 10 15 10 26 0 11 -4 17 -10 14 -5 -3 -10 -15 -10
-26 0 -27 -14 -24 -43 11 -35 42 -44 38 -11 -5z"/>
<path d="M4233 3982 c10 -10 17 -22 17 -26 0 -14 30 -37 40 -31 5 3 9 16 9 28
-1 17 -2 18 -6 5 -7 -26 -20 -22 -40 12 -9 17 -22 30 -27 30 -5 0 -2 -8 7 -18z"/>
<path d="M6865 3960 c-4 -7 6 -26 22 -43 17 -18 49 -58 73 -89 44 -60 80 -77
80 -38 0 13 7 20 20 20 16 0 20 7 20 35 0 19 -5 35 -10 35 -6 0 -50 19 -98 43
-48 23 -90 43 -94 45 -3 2 -9 -2 -13 -8z m144 -99 c29 -15 31 -19 15 -25 -12
-5 -25 1 -41 19 -28 29 -21 31 26 6z"/>
<path d="M1910 3940 c0 -37 94 -190 158 -256 42 -44 47 -91 12 -124 -3 -3 -14
-21 -24 -40 -11 -19 -24 -39 -28 -45 -5 -5 -18 -23 -29 -38 -23 -31 -122 -107
-139 -107 -5 0 -10 -4 -10 -9 0 -5 -16 -12 -35 -15 -35 -7 -58 -26 -31 -26 19
0 119 53 163 86 35 27 123 136 123 153 0 6 4 11 9 11 8 0 21 30 25 55 3 27 38
9 102 -52 78 -74 99 -92 159 -131 22 -15 46 -32 53 -39 15 -15 178 -98 212
-108 14 -4 50 -19 80 -32 30 -14 71 -31 90 -39 19 -8 44 -20 55 -26 11 -7 34
-18 50 -25 17 -8 39 -19 50 -26 11 -6 45 -24 75 -40 190 -102 431 -297 461
-373 6 -16 13 -23 16 -17 18 48 -162 210 -387 350 -82 51 -355 191 -415 213
-11 4 -37 15 -58 24 -21 9 -44 16 -52 16 -8 0 -15 4 -15 9 0 5 -11 12 -24 15
-24 6 -181 99 -201 120 -6 6 -27 22 -45 36 -32 24 -203 193 -225 222 -6 7 -30
36 -53 64 -24 29 -61 87 -83 130 -21 43 -39 72 -39 64z"/>
<path d="M5010 3939 c0 -8 10 -15 23 -16 12 0 58 -4 102 -7 98 -7 88 1 -15 12
-41 5 -83 12 -92 17 -12 5 -18 3 -18 -6z"/>
<path d="M3310 3934 c8 -4 17 -10 20 -13 3 -3 23 -15 45 -26 22 -11 79 -44
126 -72 47 -29 91 -53 97 -53 7 0 12 -4 12 -10 0 -5 5 -10 10 -10 6 0 35 -16
65 -35 63 -40 139 -79 175 -90 38 -11 12 8 -40 30 -25 11 -91 48 -148 82 -56
35 -105 63 -107 63 -2 0 -45 25 -95 55 -50 30 -95 55 -100 55 -4 0 -10 4 -12
9 -1 5 -16 12 -33 15 -16 4 -23 3 -15 0z"/>
<path d="M4237 3883 c4 -22 2 -25 -6 -13 -10 13 -11 13 -11 0 0 -8 -3 -26 -5
-40 -6 -25 -6 -25 5 -2 5 13 14 20 20 17 6 -4 10 8 10 29 0 20 -4 36 -9 36 -4
0 -6 -12 -4 -27z"/>
<path d="M5290 3900 c25 -5 66 -12 93 -15 47 -6 70 -35 28 -35 -11 0 -23 -4
-26 -10 -11 -17 16 -11 54 12 31 19 33 23 16 26 -11 2 -24 8 -30 12 -5 4 -48
10 -95 13 -66 5 -75 4 -40 -3z"/>
<path d="M6010 3839 c47 -4 123 -7 170 -7 l85 1 -60 7 c-33 4 -109 8 -170 7
l-110 0 85 -8z"/>
<path d="M5319 3825 c-3 -2 -62 -5 -132 -6 -70 0 -127 -5 -127 -9 0 -11 293 0
305 11 5 5 -1 9 -16 9 -14 0 -28 -2 -30 -5z"/>
<path d="M6640 3820 c13 -8 12 -11 -5 -24 -18 -14 -18 -15 -2 -16 9 0 17 4 17
9 0 5 14 11 30 15 45 8 36 26 -12 26 -31 0 -39 -3 -28 -10z"/>
<path d="M2830 3801 c0 -11 4 -22 9 -26 5 -3 12 -19 16 -35 4 -17 11 -30 16
-30 5 0 9 -5 9 -11 0 -31 143 -185 255 -275 43 -34 191 -135 248 -169 53 -31
306 -191 327 -207 14 -11 62 -45 106 -78 137 -99 275 -251 299 -331 4 -13 11
-28 15 -34 6 -9 13 -33 34 -120 3 -11 3 7 0 39 -3 33 -9 66 -13 75 -5 9 -16
34 -27 56 -65 139 -254 310 -529 480 -60 37 -130 82 -155 99 -25 17 -52 36
-62 41 -173 105 -225 144 -337 255 -122 121 -191 216 -191 263 0 9 -4 19 -10
22 -5 3 -10 -3 -10 -14z"/>
<path d="M5103 3770 c14 -11 30 -20 35 -20 6 0 12 -3 14 -8 2 -4 33 -26 69
-50 99 -64 177 -149 106 -115 -55 27 -221 58 -177 34 8 -5 36 -11 62 -14 26
-4 56 -11 65 -16 31 -16 103 -35 109 -28 13 13 -86 102 -185 168 -99 65 -153
92 -98 49z"/>
<path d="M6570 3773 c-8 -2 -28 -11 -45 -18 -16 -7 -48 -19 -70 -26 -22 -7
-44 -16 -50 -20 -5 -4 -25 -10 -42 -14 -18 -3 -35 -11 -38 -16 -12 -18 9 -12
140 38 22 8 49 19 60 23 70 26 110 55 45 33z"/>
<path d="M1800 3695 c0 -19 -3 -35 -8 -35 -4 0 -14 -15 -21 -32 -39 -87 -126
-138 -237 -138 -48 0 -73 -4 -69 -10 13 -22 195 -1 195 22 0 4 7 8 15 8 9 0
27 11 40 25 14 13 25 21 25 17 0 -4 14 15 32 43 28 44 51 135 34 135 -3 0 -6
-16 -6 -35z"/>
<path d="M6260 3654 c-14 -7 -33 -14 -42 -14 -9 0 -19 -4 -22 -8 -3 -5 -32
-17 -65 -28 -34 -10 -61 -22 -61 -26 0 -12 15 -10 46 7 16 8 37 15 46 15 9 0
19 4 22 8 3 5 32 17 65 28 34 10 61 22 61 26 0 12 -22 8 -50 -8z"/>
<path d="M4665 3630 c3 -5 13 -10 21 -10 8 0 22 -4 32 -9 9 -5 51 -21 92 -36
96 -35 239 -104 347 -166 98 -57 93 -55 85 -26 -13 50 -148 204 -194 219 -28
10 5 26 45 22 31 -3 37 -2 22 5 -23 11 -105 14 -105 5 0 -4 44 -50 98 -103
101 -98 134 -141 110 -141 -7 0 -26 9 -43 20 -43 30 -269 142 -340 169 -170
66 -181 69 -170 51z"/>
<path d="M4590 3607 c0 -1 30 -34 68 -72 64 -67 168 -192 204 -245 20 -29 51
-73 198 -272 121 -165 172 -229 284 -352 151 -167 160 -176 169 -176 4 0 2 6
-5 14 -7 7 -35 39 -63 71 -27 32 -81 92 -119 132 -39 41 -77 84 -85 96 -8 12
-26 33 -39 47 -13 14 -98 129 -190 255 -223 307 -422 545 -422 502z"/>
<path d="M3990 3587 c9 -9 174 -37 217 -37 131 0 133 15 3 22 -74 4 -155 10
-180 14 -25 3 -43 4 -40 1z"/>
<path d="M6006 3555 c-15 -8 -35 -15 -42 -15 -8 0 -14 -4 -14 -10 0 -13 27
-13 35 -1 3 5 19 12 35 16 16 4 32 11 35 16 9 14 -16 11 -49 -6z"/>
<path d="M2730 3526 c-17 -53 -52 -60 -100 -20 -40 34 -49 26 -10 -9 34 -30
83 -36 106 -12 9 8 12 15 8 15 -3 0 -2 6 3 13 16 19 23 47 13 47 -4 0 -14 -15
-20 -34z"/>
<path d="M328 3513 c46 -2 118 -2 160 0 42 1 5 3 -83 3 -88 0 -123 -2 -77 -3z"/>
<path d="M648 3503 c46 -2 118 -2 160 0 42 1 5 3 -83 3 -88 0 -123 -2 -77 -3z"/>
<path d="M2806 3468 c9 -33 21 -45 41 -43 27 2 59 22 50 31 -5 5 -12 3 -16 -5
-13 -21 -56 -9 -59 17 -2 12 -8 22 -13 22 -6 0 -7 -10 -3 -22z"/>
<path d="M5955 3481 c6 -5 60 -12 120 -15 71 -3 96 -2 70 3 -66 14 -200 22
-190 12z"/>
<path d="M6225 3449 c56 -11 98 -11 70 1 -11 5 -40 8 -65 8 l-45 0 40 -9z"/>
<path d="M6321 3436 c4 -4 19 -8 35 -11 16 -2 45 -7 64 -11 24 -5 32 -3 25 4
-5 6 -37 13 -70 17 -33 4 -57 5 -54 1z"/>
<path d="M2960 3380 c27 -38 36 -43 57 -31 16 9 15 10 -8 11 -17 0 -30 8 -39
25 -7 14 -17 25 -22 25 -5 0 0 -13 12 -30z"/>
<path d="M6475 3401 c11 -5 46 -17 78 -27 33 -10 57 -22 57 -30 0 -9 12 -14
31 -14 27 0 30 2 19 15 -7 8 -19 15 -26 15 -8 0 -22 4 -32 9 -32 18 -61 27
-112 35 -26 5 -30 4 -15 -3z"/>
<path d="M1121 3385 c-1 -11 -16 -29 -33 -40 -17 -11 -34 -27 -36 -34 -3 -8
12 -1 34 17 21 18 46 32 54 32 9 0 25 7 36 15 22 17 15 19 -20 5 -20 -7 -26
-6 -29 8 -4 14 -5 13 -6 -3z"/>
<path d="M2720 3382 c0 -38 89 -65 126 -37 17 13 15 14 -29 8 -41 -5 -51 -3
-72 17 -14 13 -25 19 -25 12z"/>
<path d="M1500 3325 c0 -5 26 -17 55 -26 6 -1 23 -15 38 -29 27 -25 31 -26 90
-17 76 11 103 30 32 22 -28 -3 -63 -8 -78 -10 -15 -3 -26 -1 -23 4 3 5 -17 20
-45 35 -50 25 -69 31 -69 21z"/>
<path d="M2912 3313 c3 -5 10 -23 17 -40 9 -24 19 -33 35 -33 22 0 66 38 66
56 -1 5 -11 -4 -24 -20 -28 -34 -48 -30 -67 13 -8 17 -18 31 -22 31 -5 0 -7
-3 -5 -7z"/>
<path d="M6356 3299 c-43 -5 -84 -11 -90 -14 -17 -8 164 5 204 14 l35 9 -35 0
c-19 -1 -71 -4 -114 -9z"/>
<path d="M1041 3263 c-2 -50 57 -154 97 -170 19 -8 31 -9 27 -3 -3 5 -11 10
-16 10 -29 0 -87 93 -100 159 l-7 36 -1 -32z"/>
<path d="M6159 3276 c-2 -2 -35 -6 -73 -9 -37 -3 -71 -9 -75 -12 -8 -8 166 5
211 15 32 8 31 8 -13 9 -25 1 -48 -1 -50 -3z"/>
<path d="M1677 3193 c51 -62 70 -96 113 -209 18 -50 2 -254 -21 -254 -5 0 -9
-7 -9 -15 0 -25 14 -17 30 18 22 46 21 249 -1 297 -9 19 -23 50 -30 68 -8 17
-17 32 -21 32 -5 0 -8 5 -8 10 0 18 -64 99 -78 100 -8 0 4 -21 25 -47z"/>
<path d="M5770 3210 c0 -5 7 -10 15 -10 8 0 15 -4 15 -9 0 -5 13 -12 30 -16
16 -3 47 -15 68 -25 21 -10 52 -21 68 -25 27 -5 27 -5 -6 11 -63 31 -98 44
-113 44 -18 0 -40 24 -30 33 3 4 -6 7 -20 7 -15 0 -27 -4 -27 -10z"/>
<path d="M1330 3150 c0 -27 44 -104 80 -140 39 -39 150 -100 183 -100 30 0 10
17 -29 25 -84 15 -214 136 -214 198 0 9 -4 19 -10 22 -5 3 -10 1 -10 -5z"/>
<path d="M6000 3115 c0 -6 65 -33 98 -42 17 -4 23 -2 18 6 -4 6 -15 11 -24 11
-9 0 -30 7 -46 15 -29 15 -46 19 -46 10z"/>
<path d="M1151 3052 c-3 -69 68 -156 187 -228 42 -25 79 -50 80 -55 2 -5 9 -9
15 -9 7 0 32 -18 57 -40 25 -22 48 -40 51 -40 21 0 59 -51 67 -90 l10 -45 1
47 c1 40 -3 50 -26 67 -35 26 -38 28 -91 70 -50 39 -111 81 -117 81 -8 0 -109
67 -131 86 -37 35 -74 91 -88 135 -10 30 -14 37 -15 21z"/>
<path d="M6134 3061 c3 -5 18 -12 33 -16 15 -3 44 -15 65 -25 21 -10 40 -15
42 -11 3 4 -10 13 -27 20 -18 7 -47 19 -65 27 -37 16 -56 18 -48 5z"/>
<path d="M6285 3001 c-3 -7 3 -11 14 -11 12 0 21 -4 21 -9 0 -5 14 -12 30 -16
17 -4 30 -10 30 -13 0 -4 18 -16 40 -26 22 -11 40 -22 40 -26 0 -4 8 -11 18
-14 26 -10 56 -29 76 -49 10 -10 21 -15 25 -12 7 8 -59 64 -76 65 -7 0 -13 3
-13 8 0 4 -17 16 -37 27 -21 11 -40 22 -43 26 -7 8 -44 22 -52 21 -5 -1 -8 2
-8 7 0 5 -8 11 -17 15 -10 3 -23 8 -30 12 -6 3 -14 0 -18 -5z"/>
<path d="M5610 2980 c0 -5 3 -10 8 -10 4 0 22 -13 39 -28 100 -84 117 -98 131
-106 9 -5 26 -19 38 -30 12 -12 35 -31 50 -43 16 -12 39 -30 51 -40 12 -10 37
-29 55 -42 59 -44 148 -140 148 -160 0 -19 -2 -18 -67 5 -38 13 -92 36 -121
49 -29 14 -57 25 -61 25 -5 0 -11 3 -13 8 -1 4 -21 16 -43 27 -22 11 -133 78
-247 148 -115 71 -212 125 -218 122 -13 -8 -13 -35 0 -35 6 0 10 -7 10 -16 0
-15 28 -74 41 -84 3 -3 9 -12 13 -20 3 -8 4 -1 0 15 -3 17 -10 32 -15 33 -5 2
-9 9 -9 15 0 7 -7 25 -15 41 -9 16 -13 31 -11 33 3 3 83 -44 178 -103 95 -59
202 -124 238 -144 36 -20 74 -41 85 -48 56 -32 238 -102 266 -102 13 0 11 23
-6 57 -16 33 -108 120 -200 191 -62 47 -102 79 -111 87 -6 5 -34 28 -63 50
-29 22 -64 50 -79 63 l-27 23 35 -5 c19 -2 49 -7 65 -11 27 -6 28 -5 10 6 -10
7 -44 14 -75 15 -30 2 -57 4 -60 4 -3 0 2 5 10 10 12 8 11 10 -7 10 -13 0 -23
-4 -23 -10z"/>
<path d="M5796 2931 c5 -5 32 -12 59 -15 l50 -5 -40 14 c-47 16 -83 19 -69 6z"/>
<path d="M6000 2881 c8 -5 40 -12 70 -15 35 -4 49 -3 40 2 -8 5 -40 12 -70 16
-34 4 -49 3 -40 -3z"/>
<path d="M6145 2851 c43 -19 378 -40 388 -23 3 4 -36 7 -86 7 -51 0 -119 4
-152 8 -126 15 -170 17 -150 8z"/>
<path d="M1868 2725 c-3 -3 -14 -7 -24 -9 -11 -3 -32 -10 -49 -17 -16 -7 -33
-13 -37 -13 -5 -1 -8 -4 -8 -8 0 -5 0 -11 0 -15 0 -4 5 -2 12 5 7 7 20 12 30
12 10 0 18 4 18 9 0 8 117 31 159 31 18 0 38 -33 33 -53 -1 -5 1 -6 6 -3 5 3
7 19 4 36 l-4 30 -67 0 c-37 0 -70 -2 -73 -5z"/>
<path d="M5430 2726 c0 -3 39 -78 59 -111 6 -11 16 -33 21 -49 6 -16 13 -26
16 -24 6 6 -26 90 -37 98 -4 3 -11 18 -14 33 -4 15 -11 27 -16 27 -5 0 -9 7
-9 15 0 8 -4 15 -10 15 -5 0 -10 -2 -10 -4z"/>
<path d="M3514 2620 c28 -219 9 -451 -45 -552 -11 -22 -12 -38 0 -38 5 0 12
16 16 36 3 20 10 44 15 53 37 72 54 478 22 526 -12 18 -13 15 -8 -25z"/>
<path d="M1985 2630 c-19 -21 -41 -28 -29 -8 5 8 2 9 -10 5 -10 -4 -36 -8 -59
-8 -34 -1 -29 -3 23 -9 56 -7 68 -6 84 11 11 10 17 21 15 24 -3 3 -14 -4 -24
-15z"/>
<path d="M1039 2556 c-71 -48 -95 -65 -224 -156 -114 -81 -176 -124 -234 -162
-29 -20 -21 -24 12 -7 11 7 68 46 126 87 147 105 193 137 286 200 95 66 89 61
84 66 -2 2 -25 -11 -50 -28z"/>
<path d="M1989 2574 c5 -12 8 -23 6 -26 -3 -2 11 -10 30 -18 47 -18 51 -37 17
-79 -38 -47 -124 -92 -188 -98 -128 -13 -194 24 -214 123 -14 65 -25 72 -17 9
15 -106 65 -145 187 -145 146 0 290 96 260 174 -5 14 -16 26 -24 26 -9 0 -27
12 -42 28 -20 21 -24 22 -15 6z"/>
<path d="M1877 2543 c-17 -17 -3 -23 51 -21 l57 1 -50 7 -50 6 50 5 50 5 -51
2 c-28 1 -54 -1 -57 -5z"/>
<path d="M4174 2375 c0 -49 1 -71 3 -48 2 23 2 64 0 90 -2 26 -3 8 -3 -42z"/>
<path d="M4157 2243 c-4 -21 -10 -51 -13 -68 -4 -21 -3 -27 4 -20 6 6 13 36
17 68 8 63 1 79 -8 20z"/>
<path d="M4126 2128 c-13 -44 -41 -116 -54 -136 -8 -12 -12 -25 -8 -29 6 -7
61 107 72 151 6 25 -3 38 -10 14z"/>
<path d="M3067 2077 c3 -29 10 -56 16 -62 9 -10 4 44 -9 88 -5 16 -3 17 14 8
25 -13 60 -15 47 -2 -6 4 -24 11 -42 14 l-32 6 6 -52z"/>
<path d="M3304 2041 c3 -5 22 -12 42 -15 55 -11 84 -27 84 -48 0 -10 -4 -18
-9 -18 -5 0 -11 -8 -15 -17 -5 -18 -22 -46 -41 -70 -5 -7 -26 -33 -45 -59 -41
-56 -116 -133 -187 -191 l-51 -43 -44 43 c-23 23 -64 69 -90 102 -61 76 -57
71 -98 132 -34 50 -50 64 -50 43 0 -5 4 -10 8 -10 4 0 28 -30 52 -67 46 -71
152 -199 182 -221 10 -7 18 -19 18 -25 -1 -11 -60 -42 -114 -61 -10 -4 -16 -9
-13 -13 13 -13 156 63 214 113 12 11 34 28 49 39 40 29 163 180 212 258 50 82
46 95 -37 120 -65 19 -74 21 -67 8z"/>
<path d="M3090 1990 c0 -38 133 -251 147 -236 3 3 -11 27 -33 52 -21 26 -55
81 -76 123 -21 42 -38 69 -38 61z"/>
<path d="M2781 1874 c1 -43 5 -92 9 -109 5 -18 7 10 5 73 -1 56 -5 105 -9 109
-3 3 -5 -29 -5 -73z"/>
<path d="M4025 1908 c-75 -114 -169 -215 -285 -309 -50 -40 -74 -57 -179 -128
-54 -37 -203 -111 -223 -111 -9 0 -20 -5 -24 -11 -11 -18 40 -2 124 38 172 83
412 269 506 392 71 94 118 163 113 167 -2 2 -17 -15 -32 -38z"/>
<path d="M4710 1910 c15 -5 -15 -6 -72 -3 -70 4 -98 2 -98 -6 0 -6 16 -11 36
-11 21 0 33 -4 29 -10 -3 -5 1 -10 9 -10 9 0 16 4 16 9 0 6 23 11 52 13 54 3
84 29 31 27 l-28 -1 25 -8z"/>
<path d="M4809 1894 c-14 -15 -31 -23 -41 -21 -15 4 -18 -1 -18 -34 0 -21 5
-39 10 -39 6 0 10 -18 10 -41 0 -22 4 -38 9 -35 4 3 11 -27 15 -66 6 -68 18
-98 37 -98 5 0 9 7 9 16 0 9 -6 14 -13 11 -9 -3 -11 6 -8 36 2 24 0 37 -6 34
-6 -4 -13 19 -17 55 -10 95 -8 125 9 132 8 3 15 11 15 17 0 7 -11 2 -25 -11
-17 -16 -25 -19 -25 -9 0 8 14 23 30 34 16 11 30 23 30 28 0 4 15 6 33 6 l32
-1 -30 -8 -30 -7 30 -4 c29 -4 30 -5 33 -66 2 -36 -1 -63 -7 -63 -5 0 -12 -14
-16 -30 -4 -17 -10 -28 -15 -25 -4 3 -14 -3 -21 -12 -12 -15 -12 -16 2 -11 13
5 16 2 12 -12 -3 -12 4 -21 26 -31 17 -8 31 -18 31 -23 0 -5 25 -6 55 -4 30 3
52 1 49 -4 -3 -4 5 -8 17 -8 22 0 22 0 3 15 -10 8 -31 15 -46 15 -16 0 -28 4
-28 9 0 4 -22 12 -50 17 l-50 9 14 28 c8 15 12 27 8 27 -4 0 -2 4 3 8 36 26
46 107 19 160 -20 41 -60 43 -95 6z"/>
<path d="M5215 1910 c36 -6 37 -7 9 -9 -31 -1 -94 -48 -94 -69 0 -7 -4 -12
-10 -12 -20 0 -9 29 21 55 17 14 28 29 25 33 -4 4 -23 -11 -42 -33 -35 -41
-41 -55 -24 -55 6 0 8 -12 5 -27 -3 -16 -2 -21 1 -13 8 17 20 32 60 76 39 43
100 49 107 12 3 -21 4 -21 11 -5 12 27 -28 57 -73 56 l-36 -2 40 -7z"/>
<path d="M6090 1913 c-17 -6 -80 -73 -80 -85 0 -5 5 -8 10 -8 6 0 8 -12 5 -27
-3 -16 -2 -22 1 -14 8 16 29 43 66 83 32 35 106 39 100 6 -2 -10 1 -18 6 -18
5 0 12 -12 16 -27 3 -16 15 -39 26 -53 l20 -25 0 23 c0 12 -4 22 -10 22 -5 0
-10 10 -10 23 0 18 -2 19 -11 7 -8 -12 -9 -9 -5 13 4 15 2 27 -4 27 -5 0 -10
5 -10 11 0 34 -71 59 -120 42z m52 -12 c-31 -6 -92 -53 -92 -72 0 -5 -4 -9
-10 -9 -22 0 -8 30 27 59 28 23 47 31 73 30 l35 -2 -33 -6z"/>
<path d="M6341 1896 c-13 -14 -20 -29 -16 -35 3 -6 1 -11 -6 -11 -7 0 -9 -3
-6 -7 9 -9 48 27 41 38 -8 13 55 11 69 -3 7 -6 11 -26 9 -44 -2 -18 1 -41 7
-51 8 -15 10 -9 11 30 0 95 -57 138 -109 83z"/>
<path d="M5425 1869 c-20 -23 -43 -56 -51 -75 -15 -35 -34 -46 -34 -19 0 8 -4
15 -10 15 -5 0 -10 10 -10 23 0 18 -2 19 -11 7 -8 -12 -9 -9 -5 13 4 15 2 27
-4 27 -30 0 8 -95 43 -106 16 -5 19 -13 14 -50 -2 -24 -1 -44 3 -44 4 0 11
-11 14 -24 26 -106 226 -89 234 20 2 30 -2 45 -17 58 -32 29 -111 40 -111 16
0 -4 19 -6 43 -3 33 4 39 2 27 -7 -13 -10 -11 -11 7 -7 16 4 20 1 16 -11 -5
-11 -2 -14 9 -10 11 5 15 -2 15 -28 0 -22 -5 -34 -14 -34 -8 0 -11 -4 -8 -10
3 -5 0 -7 -8 -4 -8 3 -18 1 -22 -5 -3 -6 -16 -11 -28 -12 -20 -1 -20 -2 3 -9
20 -6 14 -8 -28 -9 -56 -1 -72 8 -105 61 -18 30 -24 128 -7 128 6 0 10 6 10
14 0 8 7 22 16 30 8 9 12 21 8 27 -4 8 -3 9 4 5 6 -4 30 7 53 24 23 16 38 30
32 30 -5 0 -18 -7 -29 -15 -29 -22 -40 -18 -13 5 13 10 19 19 13 20 -7 0 -28
-18 -49 -41z"/>
<path d="M5805 1900 c-17 -7 -14 -9 13 -9 19 -1 31 -5 27 -11 -3 -5 3 -10 14
-10 27 0 101 -91 112 -139 6 -23 7 -23 8 -4 1 28 -36 103 -61 123 -11 8 -31
25 -46 37 -29 25 -36 26 -67 13z"/>
<path d="M4470 1880 c20 -13 83 -13 75 0 -3 6 -25 10 -48 10 -31 0 -38 -3 -27
-10z"/>
<path d="M5745 1833 c4 -32 9 -73 10 -91 1 -18 6 -36 10 -40 4 -4 5 18 1 48
-3 30 -6 74 -6 98 0 24 -5 42 -11 42 -8 0 -9 -17 -4 -57z"/>
<path d="M4580 1859 c0 -5 -4 -7 -10 -4 -5 3 -10 -1 -10 -10 0 -9 4 -13 10
-10 6 3 11 -34 13 -97 l3 -103 1 118 c0 64 -1 117 -3 117 -2 0 -4 -5 -4 -11z"/>
<path d="M6291 1815 c-1 -30 2 -36 10 -25 7 11 9 3 7 -32 -1 -26 1 -50 5 -54
4 -4 7 -22 7 -41 0 -18 5 -33 10 -33 6 0 10 -13 10 -29 0 -30 15 -49 28 -36 4
4 1 10 -5 12 -8 3 -11 14 -7 28 3 12 1 26 -5 29 -6 4 -11 23 -11 42 0 19 -4
34 -10 34 -5 0 -10 19 -10 43 -1 23 -7 56 -15 72 l-13 30 -1 -40z"/>
<path d="M2530 1810 c0 -9 7 -26 16 -38 8 -12 12 -22 8 -22 -4 0 0 -8 8 -17 9
-10 23 -33 33 -51 9 -19 19 -31 22 -28 3 3 1 11 -5 18 -5 7 -26 45 -46 83 -20
39 -36 63 -36 55z"/>
<path d="M5061 1708 c0 -63 3 -62 26 9 8 22 7 35 0 42 -21 21 -27 10 -26 -51z"/>
<path d="M6420 1755 c0 -10 -11 -26 -25 -37 -14 -11 -24 -27 -24 -36 1 -13 3
-12 7 3 l5 20 8 -20 c8 -20 8 -20 8 0 1 11 10 27 21 35 22 16 26 35 10 45 -5
3 -10 -1 -10 -10z"/>
<path d="M2502 1633 c-2 -130 -2 -133 -24 -133 -40 -1 2 -18 57 -24 49 -5 50
-5 13 6 l-37 11 -4 136 -3 136 -2 -132z"/>
<path d="M2058 1734 c-11 -11 54 -103 111 -157 74 -71 300 -201 318 -183 3 3
-7 10 -23 16 -48 18 -142 68 -209 112 -56 37 -175 160 -175 182 0 9 55 -36 72
-59 4 -5 8 -6 8 -2 0 4 12 -4 27 -18 15 -14 33 -25 40 -25 6 0 13 -4 15 -8 5
-13 176 -92 200 -92 5 0 6 5 3 10 -3 6 -12 10 -20 10 -32 0 -204 90 -243 127
-7 7 -16 13 -20 13 -4 0 -27 18 -50 40 -48 43 -46 43 -54 34z"/>
<path d="M6260 1701 c0 -22 -5 -43 -10 -46 -7 -4 -9 3 -5 22 l7 28 -14 -25
c-8 -14 -10 -28 -6 -31 11 -7 -1 -39 -14 -39 -6 0 -8 7 -5 14 4 10 1 13 -9 9
-16 -6 -19 -23 -4 -23 6 0 10 -5 10 -11 0 -7 -10 -9 -26 -5 -17 5 -23 3 -19
-4 4 -6 -15 -10 -55 -10 -38 0 -59 4 -55 10 3 6 -1 10 -9 10 -9 0 -16 8 -16
18 0 15 -2 15 -11 2 -8 -11 -9 -7 -4 18 4 20 3 32 -4 32 -21 0 -11 -56 14 -80
25 -23 124 -34 142 -16 4 3 14 6 23 6 44 0 114 134 80 155 -6 4 -10 -10 -10
-34z"/>
<path d="M2805 1665 c4 -38 11 -80 16 -93 5 -13 9 -37 9 -53 0 -16 5 -29 11
-29 7 0 9 10 4 28 -4 15 -13 67 -20 116 -17 107 -30 129 -20 31z"/>
<path d="M4602 1674 c-1 -23 -5 -55 -8 -73 -5 -23 -2 -32 10 -37 20 -8 35 4
19 14 -7 4 -14 37 -16 72 -2 41 -4 50 -5 24z"/>
<path d="M5313 1675 c-6 -14 -7 -25 -2 -25 16 0 10 -19 -13 -40 -14 -13 -29
-18 -41 -14 -13 4 -17 2 -13 -5 5 -8 -14 -11 -61 -11 -48 0 -63 3 -53 10 13 8
12 10 -2 10 -10 0 -18 8 -18 18 0 15 -2 15 -11 2 -8 -12 -10 -9 -6 13 2 15 0
30 -4 33 -21 13 -7 -54 15 -76 24 -22 126 -34 143 -16 4 3 14 6 23 6 22 0 79
61 63 67 -8 3 -11 14 -7 29 8 31 2 31 -13 -1z"/>
<path d="M5950 1682 c0 -26 -36 -93 -45 -84 -5 4 -5 1 -1 -6 6 -10 -5 -12 -51
-10 l-58 3 -7 48 c-9 63 -21 77 -15 17 8 -73 12 -78 73 -82 60 -3 104 23 104
62 0 11 3 20 8 20 4 0 7 11 7 25 0 14 -3 25 -7 25 -5 0 -8 -8 -8 -18z"/>
<path d="M6390 1653 c0 -6 12 -9 28 -6 23 3 24 2 7 -6 -17 -8 -18 -10 -2 -10
9 -1 17 -5 17 -11 0 -5 20 -10 44 -10 25 0 56 -4 70 -10 16 -6 26 -6 26 0 0
14 -35 30 -64 30 -13 0 -26 4 -28 9 -4 13 -98 26 -98 14z"/>
<path d="M2620 1635 c0 -3 18 -37 40 -76 22 -39 40 -75 40 -80 0 -5 5 -9 10
-9 14 0 14 0 -36 89 -41 73 -54 92 -54 76z"/>
<path d="M2850 1484 l-45 -14 50 5 c27 3 54 10 59 15 13 13 -7 11 -64 -6z"/>
<path d="M2625 1460 c25 -11 121 -11 155 0 15 4 -14 7 -75 8 -62 0 -92 -3 -80
-8z"/>
<path d="M5298 1380 c2 -17 8 -33 13 -36 5 -3 9 -29 9 -58 0 -47 -3 -55 -22
-61 -17 -4 -19 -8 -9 -12 33 -13 73 102 42 121 -5 3 -12 22 -15 41 -8 43 -24
47 -18 5z"/>
<path d="M2555 1362 c6 -5 28 -13 50 -17 26 -4 36 -3 30 3 -5 5 -28 13 -50 17
-26 4 -36 3 -30 -3z"/>
<path d="M3245 1331 c-11 -5 -63 -13 -115 -20 -52 -7 -97 -15 -100 -18 -5 -6
90 3 149 13 20 4 31 3 28 -3 -3 -5 -7 -141 -8 -303 l-2 -295 34 -2 34 -1 -30
7 c-24 5 -30 11 -28 31 1 14 5 146 8 294 3 148 8 273 11 277 3 5 15 9 27 9 12
0 29 5 37 10 19 12 -14 13 -45 1z"/>
<path d="M5397 1318 c8 -35 33 -121 43 -143 5 -11 11 -27 13 -35 3 -9 11 2 22
28 9 23 23 42 29 42 15 0 51 -38 60 -64 3 -10 9 -16 12 -13 8 8 -21 59 -46 82
l-22 20 -22 -28 c-33 -41 -42 -34 -62 53 -10 44 -21 80 -25 80 -4 0 -5 -10 -2
-22z"/>
<path d="M2788 1302 l73 -16 -6 -36 -6 -35 18 35 18 35 -25 11 c-14 6 -52 14
-85 17 l-60 6 73 -17z"/>
<path d="M5672 1279 c-33 -13 -27 -18 20 -16 33 2 43 -2 46 -15 2 -10 -2 -18
-8 -18 -12 0 -40 -24 -40 -34 0 -20 28 -3 58 36 25 31 -30 64 -76 47z"/>
<path d="M5606 1235 c-23 -34 -20 -56 12 -93 26 -31 122 -63 122 -41 0 5 -16
9 -36 9 -21 0 -33 4 -29 10 3 6 -2 10 -12 10 -27 0 -53 35 -53 71 0 16 3 28 8
26 4 -3 12 1 19 8 10 10 9 14 -2 18 -7 3 -20 -5 -29 -18z"/>
<path d="M5253 1198 c4 -12 65 -13 76 -2 11 11 -9 13 -33 5 -17 -7 -26 -7 -26
-1 0 6 -5 10 -11 10 -6 0 -9 -6 -6 -12z"/>
<path d="M2817 1126 c-8 -21 -21 -162 -13 -155 7 7 29 159 23 165 -3 3 -7 -2
-10 -10z"/>
<path d="M4095 976 c-24 -20 -28 -27 -17 -37 6 -7 12 -27 13 -43 0 -17 4 -40
9 -51 14 -32 13 35 -1 74 -10 28 -9 34 7 46 23 18 56 19 72 3 7 -7 12 -9 12
-4 0 38 -54 44 -95 12z"/>
<path d="M4455 924 c-8 -84 0 -187 15 -192 6 -2 10 -14 10 -27 0 -35 48 -65
104 -65 25 0 46 5 46 10 0 6 6 10 14 10 8 0 17 7 20 16 3 8 2 12 -4 9 -6 -3
-10 -1 -10 4 0 6 5 11 12 11 6 0 8 3 5 6 -4 4 -14 1 -22 -6 -11 -9 -13 -15 -5
-20 8 -5 7 -9 -4 -13 -9 -4 -16 -2 -16 3 0 6 -5 10 -11 10 -6 0 -9 -6 -6 -13
4 -10 -2 -13 -21 -9 -35 6 -102 73 -102 101 0 11 -4 21 -10 21 -6 0 -10 32 -9
78 1 54 3 69 9 52 6 -19 8 -11 9 33 1 83 -16 70 -24 -19z"/>
<path d="M4640 965 c0 -28 3 -36 9 -26 7 11 11 8 14 -15 2 -16 3 -9 1 16 -5
58 -24 78 -24 25z"/>
<path d="M4768 975 c-12 -14 -32 -25 -45 -25 -13 0 -23 -4 -23 -10 0 -12 2
-12 34 0 26 9 38 -3 14 -13 -9 -4 -8 -6 2 -6 8 -1 21 8 28 19 8 13 9 20 1 20
-6 0 -4 7 5 15 8 8 25 15 38 14 23 -1 23 -1 -2 -9 l-25 -8 27 -1 c41 -1 52
-31 37 -94 -11 -48 -16 -58 -46 -92 -18 -19 -16 -40 4 -56 15 -12 16 -12 10 4
-4 9 -2 17 4 17 7 0 9 10 4 27 -4 16 -3 25 0 21 14 -14 35 21 39 64 2 23 5 48
7 53 2 6 -5 27 -15 48 -23 46 -64 51 -98 12z"/>
<path d="M5243 974 c8 -16 12 -34 10 -41 -2 -6 1 -14 6 -18 6 -3 11 -19 11
-36 0 -16 4 -29 8 -29 7 0 20 -52 38 -157 4 -22 2 -33 -5 -33 -7 0 -9 5 -6 10
3 6 0 10 -8 10 -8 0 -24 9 -37 20 -24 21 -40 26 -40 12 0 -8 44 -38 46 -31 1
2 11 -7 21 -20 28 -35 57 -22 50 22 -16 92 -30 153 -38 161 -5 6 -9 20 -9 31
0 12 -3 25 -7 29 -5 4 -12 26 -18 49 -5 22 -16 42 -23 45 -11 3 -11 -1 1 -24z"/>
<path d="M5703 989 c3 -9 9 -37 12 -63 4 -25 11 -46 16 -46 5 0 9 -10 9 -23 0
-13 4 -27 9 -33 5 -5 11 -18 14 -29 2 -11 2 0 0 25 -3 25 -8 50 -13 55 -4 6
-11 28 -15 49 -3 22 -14 49 -22 60 -10 14 -14 15 -10 5z"/>
<path d="M6485 990 c39 -6 39 -6 10 -12 -28 -5 -27 -5 8 -7 23 0 36 -5 32 -11
-3 -5 -2 -10 3 -10 5 0 12 -12 15 -27 3 -16 15 -38 26 -50 23 -25 32 -163 10
-163 -6 0 -8 9 -3 23 6 19 3 18 -19 -8 -15 -16 -24 -32 -20 -35 3 -3 8 1 10 8
8 22 25 13 18 -10 -5 -21 -4 -20 18 5 20 24 24 37 20 75 -8 99 -15 132 -24
127 -5 -4 -9 5 -9 19 0 39 -56 86 -100 85 l-35 -2 40 -7z"/>
<path d="M6689 976 c-13 -14 -31 -26 -41 -26 -14 0 -18 -7 -17 -32 2 -29 2
-30 6 -7 2 16 12 29 24 32 17 4 19 2 13 -16 -6 -21 -6 -21 15 2 26 29 26 32 4
24 -14 -5 -13 -1 4 16 12 11 32 21 45 20 23 -1 22 -1 -2 -9 -23 -8 -23 -8 8
-9 44 -1 38 23 -6 27 -23 2 -37 -3 -53 -22z"/>
<path d="M5480 950 c0 -22 4 -40 9 -40 5 0 15 -26 23 -57 l13 -58 3 39 c2 21
-1 42 -6 45 -15 10 -31 68 -25 90 3 12 1 21 -6 21 -6 0 -11 -17 -11 -40z"/>
<path d="M5937 977 c-3 -7 -3 -26 -1 -43 4 -24 3 -26 -5 -9 -9 19 -10 19 -10
-2 -1 -13 -4 -23 -8 -23 -10 0 -39 -65 -48 -103 -3 -15 -10 -25 -15 -22 -6 3
-10 -1 -10 -9 0 -12 4 -14 18 -7 9 5 28 14 42 19 24 10 24 11 3 11 -19 1 -21
4 -13 29 14 47 35 82 48 82 8 0 12 16 12 45 0 46 -4 55 -13 32z"/>
<path d="M6124 978 c-2 -4 39 -8 91 -10 52 -2 95 0 95 4 0 9 -181 15 -186 6z"/>
<path d="M6408 965 c-51 -61 -63 -86 -46 -96 23 -15 39 0 37 34 0 7 -5 1 -10
-12 -11 -27 -24 -22 -15 6 8 23 47 68 66 76 12 4 12 6 -2 6 -10 1 -23 -6 -30
-14z"/>
<path d="M6040 960 c0 -5 -8 -10 -17 -11 -14 0 -12 -3 6 -12 19 -9 25 -9 29 1
2 6 20 12 40 13 30 0 33 2 17 9 -28 12 -75 12 -75 0z"/>
<path d="M2788 915 c-4 -22 -7 -60 -7 -85 l1 -45 10 55 c5 30 7 69 6 85 -3 28
-4 27 -10 -10z"/>
<path d="M6145 926 c-5 -11 -4 -26 3 -37 7 -10 13 -62 14 -116 1 -81 2 -90 9
-53 7 42 7 40 5 -17 -1 -35 2 -63 7 -63 11 0 -1 233 -13 240 -5 3 -10 19 -12
35 -4 26 -5 27 -13 11z"/>
<path d="M5520 922 c0 -6 7 -18 16 -27 9 -8 13 -22 10 -30 -3 -10 0 -12 11 -8
11 4 14 2 9 -5 -4 -7 -3 -12 3 -12 5 0 12 -9 16 -19 3 -11 15 -23 25 -26 11
-3 19 -9 17 -13 -1 -4 8 -20 21 -36 12 -16 22 -26 22 -23 0 3 15 -9 34 -26 61
-58 86 -71 86 -47 0 6 -7 10 -17 10 -15 0 -15 1 0 18 19 20 23 67 7 77 -6 4
-10 -10 -10 -33 0 -57 -18 -56 -78 4 -29 30 -50 54 -47 54 4 0 0 6 -7 14 -25
26 -73 81 -96 110 -12 16 -22 24 -22 18z"/>
<path d="M6780 889 c-8 -30 -8 -45 -1 -52 8 -8 11 1 11 29 0 22 5 45 12 52 9
9 9 12 0 12 -6 0 -16 -19 -22 -41z"/>
<path d="M4720 880 c0 -25 4 -39 10 -35 6 4 10 -13 11 -42 l1 -48 10 35 c7 24
6 40 -1 52 -6 10 -11 29 -11 42 0 14 -4 28 -10 31 -6 4 -10 -10 -10 -35z"/>
<path d="M5078 887 c12 -13 19 -27 15 -32 -5 -4 -2 -5 5 -1 7 4 12 1 12 -9 0
-8 14 -30 31 -48 17 -17 40 -43 50 -55 10 -13 23 -21 29 -17 7 4 5 12 -8 23
-10 10 -31 34 -46 54 -16 21 -33 35 -39 31 -6 -3 -7 -1 -3 6 4 6 -5 24 -23 41
-35 35 -55 41 -23 7z"/>
<path d="M6647 881 c-4 -21 -3 -39 3 -45 5 -5 10 -30 10 -54 0 -26 4 -41 10
-37 6 4 10 -11 11 -37 l1 -43 8 35 c5 20 5 39 -1 44 -5 6 -9 27 -9 48 0 21 -4
38 -9 38 -6 0 -11 19 -13 43 l-3 42 -8 -34z"/>
<path d="M4162 866 c-29 -49 -31 -46 41 -46 74 0 97 -17 97 -69 0 -41 -25 -78
-64 -96 l-31 -14 30 2 c66 5 100 119 50 173 -22 24 -30 26 -82 22 -32 -3 -52
-3 -45 -1 6 3 12 11 12 18 0 7 5 15 12 17 6 2 9 10 6 18 -2 8 -12 -1 -26 -24z"/>
<path d="M5040 881 c0 -6 5 -13 10 -16 6 -4 10 -53 10 -116 0 -66 4 -109 10
-109 15 0 13 190 -2 223 -13 26 -28 36 -28 18z"/>
<path d="M5953 859 c4 -19 10 -54 15 -79 l8 -45 5 33 c3 18 2 35 -3 38 -4 3
-8 20 -8 39 0 19 -5 37 -11 41 -8 5 -10 -3 -6 -27z"/>
<path d="M6341 789 c-1 -71 1 -78 30 -112 30 -35 35 -37 90 -37 33 0 59 4 59
10 0 6 10 10 23 11 21 0 21 1 -3 10 -17 7 -26 7 -28 0 -5 -15 -102 -14 -102 0
0 6 -7 9 -14 6 -11 -4 -13 -1 -9 10 4 11 2 14 -5 9 -8 -5 -12 2 -13 21 0 25
-1 26 -10 8 -7 -15 -8 -10 -4 20 2 22 0 58 -4 80 -8 36 -9 32 -10 -36z"/>
<path d="M4115 775 c3 -27 10 -54 16 -60 7 -7 8 2 3 30 -11 65 -25 87 -19 30z"/>
<path d="M4690 768 c0 -41 -3 -49 -11 -38 -9 12 -10 12 -5 -3 3 -10 6 -24 6
-30 0 -7 7 1 15 17 17 32 20 106 5 106 -5 0 -10 -24 -10 -52z"/>
<path d="M3580 775 c-30 -7 -69 -14 -87 -14 -29 -1 -60 -21 -32 -21 29 0 179
35 179 42 0 5 -1 7 -2 7 -2 -1 -28 -7 -58 -14z"/>
<path d="M5437 750 c-5 -29 -4 -46 3 -48 5 -2 10 -17 10 -33 0 -16 5 -29 10
-29 6 0 10 18 10 40 0 22 -4 40 -9 40 -6 0 -11 17 -13 38 l-3 37 -8 -45z"/>
<path d="M2769 763 c0 -10 -2 -27 -3 -38 -9 -65 -14 -205 -7 -178 11 42 24
233 17 233 -3 0 -6 -8 -7 -17z"/>
<path d="M6731 780 c-18 -42 39 -90 108 -90 22 0 43 -4 46 -10 3 -5 13 -10 21
-10 8 0 14 5 14 10 0 6 -7 10 -15 10 -8 0 -15 5 -15 10 0 6 -11 10 -24 10 -14
0 -28 5 -31 10 -8 13 -35 13 -35 1 0 -5 8 -12 18 -14 13 -4 11 -5 -5 -6 -13 0
-23 4 -23 9 0 6 -8 10 -17 10 -15 0 -16 2 -3 10 12 8 11 10 -7 10 -14 0 -23 7
-26 23 -2 12 -5 20 -6 17z"/>
<path d="M4758 747 c-11 -26 -10 -57 2 -57 6 0 10 -11 10 -25 0 -14 6 -25 13
-25 9 0 12 10 9 30 -2 17 -8 30 -13 30 -4 0 -9 15 -11 33 -2 25 -5 28 -10 14z"/>
<path d="M3337 730 c-27 -5 -52 -12 -55 -16 -10 -10 132 6 143 17 11 11 -19
10 -88 -1z"/>
<path d="M5981 705 c0 -16 6 -39 15 -50 13 -18 14 -17 8 15 -10 52 -23 72 -23
35z"/>
<path d="M4895 701 c-27 -7 -26 -8 20 -13 28 -3 60 -8 73 -11 13 -3 20 -2 17
4 -4 5 -13 9 -21 9 -8 0 -14 5 -14 10 0 11 -29 11 -75 1z"/>
<path d="M5514 685 c-8 -21 3 -48 19 -43 19 7 22 58 2 58 -8 0 -18 -7 -21 -15z"/>
<path d="M2750 471 c0 -8 55 -11 188 -12 103 0 222 -4 265 -8 81 -7 115 2 49
13 -77 13 -502 19 -502 7z"/>
</g>
</svg>
